<svg width="48" height="27" viewBox="0 0 48 27" fill="none" xmlns="http://www.w3.org/2000/svg">
<path d="M27.5594 0.959922C27.8098 0.95881 28.0601 0.95765 28.3105 0.956445C28.8324 0.954397 29.3543 0.953742 29.8761 0.953947C30.5369 0.953982 31.1974 0.949279 31.8581 0.943341C32.3746 0.939463 32.891 0.938811 33.4074 0.938992C33.6506 0.938592 33.8938 0.937107 34.137 0.934397C36.4122 0.911412 38.6616 1.26287 40.684 2.37494C40.8536 2.46491 40.8536 2.46491 41.0267 2.5567C42.453 3.32887 43.503 4.22366 44.5183 5.49848C44.604 5.60067 44.6896 5.70286 44.7779 5.80814C46.5007 7.96519 47.3466 10.4885 47.3088 13.2427C47.3072 13.4246 47.3056 13.6065 47.3039 13.7939C47.2797 15.0546 47.1756 16.2012 46.7337 17.3895C46.6737 17.5614 46.6137 17.7334 46.5519 17.9105C45.4824 20.7449 43.2365 23.4952 40.4709 24.7635C39.8408 25.0318 39.2022 25.2701 38.5538 25.4892C38.4364 25.533 38.3191 25.5768 38.1982 25.6219C36.9717 26.046 35.8321 26.0763 34.5443 26.0648C34.2074 26.065 34.2074 26.065 33.8636 26.0651C33.2528 26.0652 32.6421 26.0622 32.0313 26.0586C31.3911 26.0553 30.7508 26.055 30.1106 26.0544C28.9006 26.0528 27.6905 26.0486 26.4805 26.0434C25.1019 26.0376 23.7233 26.0348 22.3448 26.0322C19.5111 26.0268 16.6774 26.0177 13.8437 26.0062C13.8279 24.1888 13.8158 22.3715 13.8084 20.5541C13.8049 19.7099 13.8001 18.8658 13.7923 18.0217C13.7848 17.2049 13.7808 16.3881 13.7791 15.5712C13.7778 15.2618 13.7754 14.9524 13.7717 14.643C13.7292 10.9577 14.4964 7.69395 17.0824 4.97042C17.3068 4.74176 17.5349 4.5168 17.7633 4.29215C17.8665 4.18818 17.9698 4.08422 18.0761 3.9771C20.7358 1.48428 24.0811 0.963614 27.5594 0.959922Z" fill="#0E78F9"/>
<path d="M10.3988 6.34789C11.8524 7.2219 12.6356 8.72594 13.0297 10.3136C13.0817 10.8066 13.0912 11.2965 13.0948 11.792C13.0964 11.9308 13.098 12.0696 13.0996 12.2126C13.1021 12.5052 13.1037 12.7977 13.1044 13.0903C13.1064 13.5316 13.1151 13.9724 13.1239 14.4136C13.1458 16.5787 12.8427 18.3933 11.2566 20.0237C9.87763 21.2308 8.53039 21.5748 6.71679 21.5546C6.46792 21.5539 6.46792 21.5539 6.21402 21.5531C5.68685 21.5512 5.15973 21.5469 4.63258 21.5425C4.27402 21.5408 3.91546 21.5392 3.5569 21.5378C2.68035 21.534 1.80384 21.528 0.927315 21.5209C0.915078 20.0865 0.90575 18.6521 0.900052 17.2176C0.897316 16.5513 0.89361 15.8851 0.88762 15.2189C0.881867 14.575 0.878748 13.9311 0.877391 13.2871C0.876426 13.0425 0.87454 12.7978 0.871681 12.5532C0.850289 10.6453 1.0159 8.88124 2.33049 7.38242C4.81413 5.28107 7.42354 4.81434 10.3988 6.34789Z" fill="#0E78F9" fill-opacity="0.5"/>
<path d="M35.6893 6.13519C36.2543 6.71388 36.2834 7.18491 36.2913 7.98493C36.2947 8.21385 36.298 8.44277 36.3015 8.67863C36.3023 8.92821 36.3029 9.17779 36.3032 9.42737C36.3049 9.68473 36.3067 9.94209 36.3086 10.1995C36.3117 10.7391 36.3127 11.2787 36.3124 11.8183C36.3123 12.5062 36.3195 13.1938 36.3285 13.8817C36.3344 14.4136 36.3354 14.9454 36.3352 15.4774C36.3358 15.7308 36.3381 15.9841 36.3422 16.2374C36.3654 17.8221 36.2707 18.9971 35.1636 20.1728C34.3016 20.8904 33.6454 20.9554 32.5354 20.8927C31.961 20.6665 31.961 20.6665 31.378 20.3507C31.2726 20.2941 31.1671 20.2374 31.0585 20.1791C29.9337 19.5676 28.8393 18.9019 27.7497 18.2269C26.0844 17.1928 26.0844 17.1928 24.3898 16.2107C24.1806 16.0923 24.1806 16.0923 23.9673 15.9715C23.7157 15.8301 23.4623 15.692 23.2068 15.5581C22.5952 15.2098 22.3906 15.0059 22.155 14.3189C22.1975 13.6939 22.1975 13.6939 22.513 13.3206C23.2876 12.8417 24.0676 12.3778 24.8586 11.928C25.2212 11.7196 25.5838 11.511 25.9462 11.3023C26.23 11.139 26.23 11.139 26.5195 10.9724C27.4993 10.4055 28.4733 9.82843 29.4471 9.25091C29.7339 9.08149 29.7339 9.08149 30.0265 8.90864C30.8807 8.40279 31.7315 7.89316 32.5723 7.36405C32.7084 7.27906 32.8446 7.19408 32.9848 7.10653C33.2306 6.95233 33.4752 6.79621 33.7183 6.63771C34.3963 6.2134 34.8945 5.98475 35.6893 6.13519Z" fill="#F2F1F1"/>
</svg>
