<svg width="129" height="29" viewBox="0 0 129 29" fill="none" xmlns="http://www.w3.org/2000/svg">
<g clip-path="url(#clip0_66_8)">
<path d="M30.5594 1.95992C30.8098 1.95881 31.0601 1.95765 31.3105 1.95645C31.8324 1.9544 32.3543 1.95374 32.8761 1.95395C33.5369 1.95398 34.1974 1.94928 34.8581 1.94334C35.3746 1.93946 35.891 1.93881 36.4074 1.93899C36.6506 1.93859 36.8938 1.93711 37.137 1.9344C39.4122 1.91141 41.6616 2.26287 43.684 3.37494C43.8536 3.46491 43.8536 3.46491 44.0267 3.5567C45.453 4.32887 46.503 5.22366 47.5183 6.49848C47.604 6.60067 47.6896 6.70286 47.7779 6.80814C49.5007 8.96519 50.3466 11.4885 50.3088 14.2427C50.3072 14.4246 50.3056 14.6065 50.3039 14.7939C50.2797 16.0546 50.1756 17.2012 49.7337 18.3895C49.6737 18.5614 49.6137 18.7334 49.5519 18.9105C48.4824 21.7449 46.2365 24.4952 43.4709 25.7635C42.8408 26.0318 42.2022 26.2701 41.5538 26.4892C41.4364 26.533 41.3191 26.5768 41.1982 26.6219C39.9717 27.046 38.8321 27.0763 37.5443 27.0648C37.2074 27.065 37.2074 27.065 36.8636 27.0651C36.2528 27.0652 35.6421 27.0622 35.0313 27.0586C34.3911 27.0553 33.7508 27.055 33.1106 27.0544C31.9006 27.0528 30.6905 27.0486 29.4805 27.0434C28.1019 27.0376 26.7233 27.0348 25.3448 27.0322C22.5111 27.0268 19.6774 27.0177 16.8437 27.0062C16.8279 25.1888 16.8158 23.3715 16.8084 21.5541C16.8049 20.7099 16.8001 19.8658 16.7923 19.0217C16.7848 18.2049 16.7808 17.3881 16.7791 16.5712C16.7778 16.2618 16.7754 15.9524 16.7717 15.643C16.7292 11.9577 17.4964 8.69395 20.0824 5.97042C20.3068 5.74176 20.5349 5.5168 20.7633 5.29215C20.8665 5.18818 20.9698 5.08422 21.0761 4.9771C23.7358 2.48428 27.0811 1.96361 30.5594 1.95992Z" fill="#0E78F9"/>
<path d="M13.3988 7.34789C14.8524 8.2219 15.6356 9.72594 16.0297 11.3136C16.0817 11.8066 16.0912 12.2965 16.0948 12.792C16.0964 12.9308 16.098 13.0696 16.0996 13.2126C16.1021 13.5052 16.1037 13.7977 16.1044 14.0903C16.1064 14.5316 16.1151 14.9724 16.1239 15.4136C16.1458 17.5787 15.8427 19.3933 14.2566 21.0237C12.8776 22.2308 11.5304 22.5748 9.71679 22.5546C9.46792 22.5539 9.46792 22.5539 9.21402 22.5531C8.68685 22.5512 8.15973 22.5469 7.63258 22.5425C7.27402 22.5408 6.91546 22.5392 6.5569 22.5378C5.68035 22.534 4.80384 22.528 3.92732 22.5209C3.91508 21.0865 3.90575 19.6521 3.90005 18.2176C3.89732 17.5513 3.89361 16.8851 3.88762 16.2189C3.88187 15.575 3.87875 14.9311 3.87739 14.2871C3.87643 14.0425 3.87454 13.7978 3.87168 13.5532C3.85029 11.6453 4.0159 9.88124 5.33049 8.38242C7.81413 6.28107 10.4235 5.81434 13.3988 7.34789Z" fill="#0E78F9" fill-opacity="0.5"/>
<path d="M38.6893 7.13519C39.2543 7.71388 39.2834 8.18491 39.2913 8.98493C39.2947 9.21385 39.298 9.44277 39.3015 9.67863C39.3023 9.92821 39.3029 10.1778 39.3032 10.4274C39.3049 10.6847 39.3067 10.9421 39.3086 11.1995C39.3117 11.7391 39.3127 12.2787 39.3124 12.8183C39.3123 13.5062 39.3195 14.1938 39.3285 14.8817C39.3344 15.4136 39.3354 15.9454 39.3352 16.4774C39.3358 16.7308 39.3381 16.9841 39.3422 17.2374C39.3654 18.8221 39.2707 19.9971 38.1636 21.1728C37.3016 21.8904 36.6454 21.9554 35.5354 21.8927C34.961 21.6665 34.961 21.6665 34.378 21.3507C34.2726 21.2941 34.1671 21.2374 34.0585 21.1791C32.9337 20.5676 31.8393 19.9019 30.7497 19.2269C29.0844 18.1928 29.0844 18.1928 27.3898 17.2107C27.1806 17.0923 27.1806 17.0923 26.9673 16.9715C26.7157 16.8301 26.4623 16.692 26.2068 16.5581C25.5952 16.2098 25.3906 16.0059 25.155 15.3189C25.1975 14.6939 25.1975 14.6939 25.513 14.3206C26.2876 13.8417 27.0676 13.3778 27.8586 12.928C28.2212 12.7196 28.5838 12.511 28.9462 12.3023C29.23 12.139 29.23 12.139 29.5195 11.9724C30.4993 11.4055 31.4733 10.8284 32.4471 10.2509C32.7339 10.0815 32.7339 10.0815 33.0265 9.90864C33.8807 9.40279 34.7315 8.89316 35.5723 8.36405C35.7084 8.27906 35.8446 8.19408 35.9848 8.10653C36.2306 7.95233 36.4752 7.79621 36.7183 7.63771C37.3963 7.2134 37.8945 6.98475 38.6893 7.13519Z" fill="#F2F1F1"/>
<path d="M61.15 24V17.975L55.2 6.5H58.875L62.575 14H63.025L66.725 6.5H70.4L64.45 17.975V24H61.15ZM78.3426 24.35C76.1426 24.35 74.3926 23.75 73.0926 22.55C71.7926 21.3333 71.1426 19.6 71.1426 17.35V13.15C71.1426 10.9 71.7926 9.175 73.0926 7.975C74.3926 6.75833 76.1426 6.15 78.3426 6.15C80.5426 6.15 82.2926 6.75833 83.5926 7.975C84.8926 9.175 85.5426 10.9 85.5426 13.15V17.35C85.5426 19.6 84.8926 21.3333 83.5926 22.55C82.2926 23.75 80.5426 24.35 78.3426 24.35ZM78.3426 21.4C79.5759 21.4 80.5342 21.0417 81.2176 20.325C81.9009 19.6083 82.2426 18.65 82.2426 17.45V13.05C82.2426 11.85 81.9009 10.8917 81.2176 10.175C80.5342 9.45833 79.5759 9.1 78.3426 9.1C77.1259 9.1 76.1676 9.45833 75.4676 10.175C74.7842 10.8917 74.4426 11.85 74.4426 13.05V17.45C74.4426 18.65 74.7842 19.6083 75.4676 20.325C76.1676 21.0417 77.1259 21.4 78.3426 21.4ZM95.2371 24.35C93.0371 24.35 91.2871 23.75 89.9871 22.55C88.6871 21.3333 88.0371 19.6 88.0371 17.35V13.15C88.0371 10.9 88.6871 9.175 89.9871 7.975C91.2871 6.75833 93.0371 6.15 95.2371 6.15C97.4371 6.15 99.1871 6.75833 100.487 7.975C101.787 9.175 102.437 10.9 102.437 13.15V17.35C102.437 19.6 101.787 21.3333 100.487 22.55C99.1871 23.75 97.4371 24.35 95.2371 24.35ZM95.2371 21.4C96.4704 21.4 97.4288 21.0417 98.1121 20.325C98.7954 19.6083 99.1371 18.65 99.1371 17.45V13.05C99.1371 11.85 98.7954 10.8917 98.1121 10.175C97.4288 9.45833 96.4704 9.1 95.2371 9.1C94.0204 9.1 93.0621 9.45833 92.3621 10.175C91.6788 10.8917 91.3371 11.85 91.3371 13.05V17.45C91.3371 18.65 91.6788 19.6083 92.3621 20.325C93.0621 21.0417 94.0204 21.4 95.2371 21.4ZM105.332 24V6.5H111.457L114.482 21.75H114.932L117.957 6.5H124.082V24H120.882V8.925H120.432L117.432 24H111.982L108.982 8.925H108.532V24H105.332Z" fill="white"/>
</g>
<defs>
<clipPath id="clip0_66_8">
<rect width="129" height="29" fill="white"/>
</clipPath>
</defs>
</svg>
